<svg xmlns="http://www.w3.org/2000/svg" viewBox="0 0 534.04 303.14"><defs><style>.cls-1{fill:#bfddd5;}.cls-2{fill:#cac1ea;}.cls-3{fill:#9e91bf;}.cls-4{opacity:0.72;}.cls-5{fill:#dd4a71;}</style></defs><title>Recurso 7</title><g id="Capa_2" data-name="Capa 2"><g id="Object"><path class="cls-1" d="M49.55,39.91V274.28h403.8V39.91ZM75.36,63.35H64.11c-1,0-1.87-1.62-1.87-3.6s.84-3.6,1.87-3.6H75.36c1,0,1.87,1.62,1.87,3.6S76.39,63.35,75.36,63.35Zm23.51,0H87.63c-1,0-1.87-1.62-1.87-3.6s.84-3.6,1.87-3.6H98.87c1,0,1.87,1.62,1.87,3.6S99.9,63.35,98.87,63.35Zm25.09,0H112.72c-1,0-1.87-1.62-1.87-3.6s.84-3.6,1.87-3.6H124c1,0,1.87,1.62,1.87,3.6S125,63.35,124,63.35Zm23.52,0H136.23c-1,0-1.87-1.62-1.87-3.6s.84-3.6,1.87-3.6h11.25c1,0,1.87,1.62,1.87,3.6S148.51,63.35,147.48,63.35Zm25.11,0H161.34c-1,0-1.87-1.62-1.87-3.6s.84-3.6,1.87-3.6h11.25c1,0,1.87,1.62,1.87,3.6S173.61,63.35,172.59,63.35Zm23.51,0H184.86c-1,0-1.87-1.62-1.87-3.6s.84-3.6,1.87-3.6H196.1c1,0,1.87,1.62,1.87,3.6S197.13,63.35,196.1,63.35Zm25.09,0H210c-1,0-1.87-1.62-1.87-3.6s.84-3.6,1.87-3.6h11.24c1,0,1.87,1.62,1.87,3.6S222.22,63.35,221.19,63.35Zm23.52,0H233.46c-1,0-1.87-1.62-1.87-3.6s.84-3.6,1.87-3.6h11.25c1,0,1.87,1.62,1.87,3.6S245.74,63.35,244.71,63.35Zm24.23,0H257.7c-1,0-1.87-1.62-1.87-3.6s.84-3.6,1.87-3.6h11.24c1,0,1.87,1.62,1.87,3.6S270,63.35,268.94,63.35Zm23.52,0H281.21c-1,0-1.87-1.62-1.87-3.6s.85-3.6,1.87-3.6h11.25c1,0,1.87,1.62,1.87,3.6S293.49,63.35,292.46,63.35Zm25.09,0H306.3c-1,0-1.87-1.62-1.87-3.6s.85-3.6,1.87-3.6h11.25c1,0,1.87,1.62,1.87,3.6S318.58,63.35,317.55,63.35Zm23.51,0H329.82c-1,0-1.87-1.62-1.87-3.6s.84-3.6,1.87-3.6h11.24c1,0,1.87,1.62,1.87,3.6S342.09,63.35,341.06,63.35Zm25.11,0H354.93c-1,0-1.87-1.62-1.87-3.6s.84-3.6,1.87-3.6h11.24c1,0,1.87,1.62,1.87,3.6S367.2,63.35,366.17,63.35Zm23.52,0H378.44c-1,0-1.87-1.62-1.87-3.6s.84-3.6,1.87-3.6h11.25c1,0,1.87,1.62,1.87,3.6S390.72,63.35,389.69,63.35Zm25.09,0H403.53c-1,0-1.87-1.62-1.87-3.6s.84-3.6,1.87-3.6h11.25c1,0,1.87,1.62,1.87,3.6S415.81,63.35,414.78,63.35Zm23.51,0H427.05c-1,0-1.87-1.62-1.87-3.6s.84-3.6,1.87-3.6h11.24c1,0,1.87,1.62,1.87,3.6S439.32,63.35,438.29,63.35Z"/><polygon class="cls-2" points="401.95 303.14 512.02 297.06 534.04 270.49 510.63 245.42 401.95 251.75 401.95 303.14"/><rect class="cls-3" x="346.29" y="251.72" width="55.66" height="51.42"/><g class="cls-4"><path class="cls-5" d="M150.47,33.79c2.74-2.32,8.52-13.59,6.12-11.94s-12.38.73-12.38.73L149.14,13s-16.67,3.05-14.79.89S138.74,0,138.74,0C76.38,42.31,0,70.42,0,70.42s17.37.11,15.84,2.35-11,7.78-11,7.78C8.5,81.8,22.1,84,22.1,84L14.42,94.42S27.31,92,28.69,92.29s-3.4,8.12-3.4,8.12c50.33-12,139.11-66.6,139.11-66.6S147.73,36.11,150.47,33.79Z"/></g></g></g></svg>