<svg xmlns="http://www.w3.org/2000/svg" xmlns:xlink="http://www.w3.org/1999/xlink" viewBox="0 0 412.85 129.34"><defs><style>.cls-1{fill:#f7e09f;}.cls-2{clip-path:url(#clip-path);}.cls-3{fill:#aa9d84;}</style><clipPath id="clip-path" transform="translate(1.57 1.43)"><rect class="cls-1" width="403.8" height="121.61"/></clipPath></defs><title>Recurso 4</title><g id="Capa_2" data-name="Capa 2"><g id="Object"><rect class="cls-1" x="1.57" y="1.43" width="403.8" height="121.61"/><g class="cls-2"><rect class="cls-3" y="70.73" width="412.85" height="0.95"/><rect class="cls-3" y="58.82" width="412.85" height="0.95"/><rect class="cls-3" y="45.49" width="412.85" height="0.95"/><rect class="cls-3" y="33.58" width="412.85" height="0.95"/><rect class="cls-3" y="20.08" width="412.85" height="0.95"/><rect class="cls-3" y="8.18" width="412.85" height="0.95"/><rect class="cls-3" y="95.82" width="412.85" height="0.95"/><rect class="cls-3" y="83.91" width="412.85" height="0.95"/><rect class="cls-3" y="119.63" width="412.85" height="0.95"/><rect class="cls-3" y="107.72" width="412.85" height="0.95"/><rect class="cls-3" x="31.04" width="0.95" height="129.34"/><rect class="cls-3" x="42.95" width="0.95" height="129.34"/><rect class="cls-3" x="6.91" width="0.95" height="129.34"/><rect class="cls-3" x="18.81" width="0.95" height="129.34"/><rect class="cls-3" x="56.2" width="0.95" height="129.34"/><rect class="cls-3" x="68.11" width="0.95" height="129.34"/><rect class="cls-3" x="80.89" width="0.95" height="129.34"/><rect class="cls-3" x="92.8" width="0.95" height="129.34"/><rect class="cls-3" x="105.34" width="0.95" height="129.34"/><rect class="cls-3" x="117.25" width="0.95" height="129.34"/><rect class="cls-3" x="130.51" width="0.95" height="129.34"/><rect class="cls-3" x="142.41" width="0.95" height="129.34"/><rect class="cls-3" x="155.19" width="0.95" height="129.34"/><rect class="cls-3" x="167.1" width="0.95" height="129.34"/><rect class="cls-3" x="265.78" width="0.95" height="129.34"/><rect class="cls-3" x="277.69" width="0.95" height="129.34"/><rect class="cls-3" x="241.65" width="0.95" height="129.34"/><rect class="cls-3" x="253.56" width="0.95" height="129.34"/><rect class="cls-3" x="290.95" width="0.95" height="129.34"/><rect class="cls-3" x="302.85" width="0.95" height="129.34"/><rect class="cls-3" x="315.63" width="0.95" height="129.34"/><rect class="cls-3" x="327.54" width="0.95" height="129.34"/><rect class="cls-3" x="340.08" width="0.95" height="129.34"/><rect class="cls-3" x="351.99" width="0.95" height="129.34"/><rect class="cls-3" x="365.25" width="0.95" height="129.34"/><rect class="cls-3" x="377.16" width="0.95" height="129.34"/><rect class="cls-3" x="389.94" width="0.95" height="129.34"/><rect class="cls-3" x="401.84" width="0.95" height="129.34"/><rect class="cls-3" x="179.17" width="0.95" height="129.34"/><rect class="cls-3" x="191.08" width="0.95" height="129.34"/><rect class="cls-3" x="204.33" width="0.95" height="129.34"/><rect class="cls-3" x="216.24" width="0.95" height="129.34"/><rect class="cls-3" x="229.02" width="0.95" height="129.34"/></g></g></g></svg>