<svg xmlns="http://www.w3.org/2000/svg" xmlns:xlink="http://www.w3.org/1999/xlink" viewBox="0 0 424.61 152.83"><defs><style>.cls-1{fill:#f7e09f;}.cls-2{clip-path:url(#clip-path);}.cls-3{fill:#aa9d84;}.cls-4{fill:#86cfd1;}.cls-5{fill:#434244;}</style><clipPath id="clip-path"><rect class="cls-1" x="13.33" y="24.92" width="403.8" height="121.61"/></clipPath></defs><title>Recurso 1</title><g id="Capa_2" data-name="Capa 2"><g id="Object"><rect class="cls-1" x="13.33" y="24.92" width="403.8" height="121.61"/><g class="cls-2"><rect class="cls-3" x="11.76" y="94.22" width="412.85" height="0.95"/><rect class="cls-3" x="11.76" y="82.31" width="412.85" height="0.95"/><rect class="cls-3" x="11.76" y="68.97" width="412.85" height="0.95"/><rect class="cls-3" x="11.76" y="57.07" width="412.85" height="0.95"/><rect class="cls-3" x="11.76" y="43.57" width="412.85" height="0.95"/><rect class="cls-3" x="11.76" y="31.66" width="412.85" height="0.95"/><rect class="cls-3" x="11.76" y="119.3" width="412.85" height="0.95"/><rect class="cls-3" x="11.76" y="107.4" width="412.85" height="0.95"/><rect class="cls-3" x="11.76" y="143.12" width="412.85" height="0.95"/><rect class="cls-3" x="11.76" y="131.21" width="412.85" height="0.95"/><rect class="cls-3" x="42.8" y="23.49" width="0.95" height="129.34"/><rect class="cls-3" x="54.71" y="23.49" width="0.95" height="129.34"/><rect class="cls-3" x="18.67" y="23.49" width="0.95" height="129.34"/><rect class="cls-3" x="30.58" y="23.49" width="0.95" height="129.34"/><rect class="cls-3" x="67.97" y="23.49" width="0.95" height="129.34"/><rect class="cls-3" x="79.87" y="23.49" width="0.95" height="129.34"/><rect class="cls-3" x="92.65" y="23.49" width="0.95" height="129.34"/><rect class="cls-3" x="104.56" y="23.49" width="0.95" height="129.34"/><rect class="cls-3" x="117.1" y="23.49" width="0.95" height="129.34"/><rect class="cls-3" x="129.01" y="23.49" width="0.95" height="129.34"/><rect class="cls-3" x="142.27" y="23.49" width="0.95" height="129.34"/><rect class="cls-3" x="154.18" y="23.49" width="0.95" height="129.34"/><rect class="cls-3" x="166.96" y="23.49" width="0.95" height="129.34"/><rect class="cls-3" x="178.86" y="23.49" width="0.95" height="129.34"/><rect class="cls-3" x="277.54" y="23.49" width="0.95" height="129.34"/><rect class="cls-3" x="289.45" y="23.49" width="0.95" height="129.34"/><rect class="cls-3" x="253.41" y="23.49" width="0.95" height="129.34"/><rect class="cls-3" x="265.32" y="23.49" width="0.95" height="129.34"/><rect class="cls-3" x="302.71" y="23.49" width="0.95" height="129.34"/><rect class="cls-3" x="314.62" y="23.49" width="0.95" height="129.34"/><rect class="cls-3" x="327.4" y="23.49" width="0.95" height="129.34"/><rect class="cls-3" x="339.3" y="23.49" width="0.95" height="129.34"/><rect class="cls-3" x="351.85" y="23.49" width="0.95" height="129.34"/><rect class="cls-3" x="363.75" y="23.49" width="0.95" height="129.34"/><rect class="cls-3" x="377.01" y="23.49" width="0.95" height="129.34"/><rect class="cls-3" x="388.92" y="23.49" width="0.95" height="129.34"/><rect class="cls-3" x="401.7" y="23.49" width="0.95" height="129.34"/><rect class="cls-3" x="413.61" y="23.49" width="0.95" height="129.34"/><rect class="cls-3" x="190.93" y="23.49" width="0.95" height="129.34"/><rect class="cls-3" x="202.84" y="23.49" width="0.95" height="129.34"/><rect class="cls-3" x="216.1" y="23.49" width="0.95" height="129.34"/><rect class="cls-3" x="228" y="23.49" width="0.95" height="129.34"/><rect class="cls-3" x="240.78" y="23.49" width="0.95" height="129.34"/></g><path class="cls-4" d="M23,7.6,13.62,0C1.67,3,0,11.46,0,11.46l4.08,8.78h0l.4.94A25.77,25.77,0,0,0,6.65,37.53c2.88,4.23,12.25,2.87,20.93-3S41,20.37,38.09,16.14A20.41,20.41,0,0,0,26.71,8.37h0A22.23,22.23,0,0,0,23,7.6Z"/><polygon class="cls-5" points="40.45 49.84 32.66 30.36 21.05 38.06 40.45 49.84"/></g></g></svg>