<svg xmlns="http://www.w3.org/2000/svg" viewBox="0 0 309.49 310.89"><defs><style>.cls-1{fill:#f9e382;}.cls-2{fill:#434244;}.cls-3{fill:#c96499;}</style></defs><title>Recurso 2</title><g id="Capa_2" data-name="Capa 2"><g id="Object"><path class="cls-1" d="M.06,18.27c.09-13.81,290.69-2.8,290.69-2.8s-1.93,134.58,18.74,289l-292,6.46S-1.23,233.38.06,18.27Z"/><polygon class="cls-2" points="259.01 25.65 251.07 46.91 268.75 35.62 259.01 25.65"/><path class="cls-3" d="M289.28,21.83,295,11.24C289.86.05,281.21,0,281.21,0l-7.86,5.65h0l-.85.57a25.76,25.76,0,0,0-15.66,5.19c-3.62,3.61-.53,12.57,6.89,20s16.38,10.51,20,6.89a20.4,20.4,0,0,0,5.51-12.63h0A21.67,21.67,0,0,0,289.28,21.83Z"/></g></g></svg>