<svg xmlns="http://www.w3.org/2000/svg" viewBox="0 0 164.4 100.41"><defs><style>.cls-1{opacity:0.42;}.cls-2{fill:#dd4a71;}</style></defs><title>Recurso 3</title><g id="Capa_2" data-name="Capa 2"><g id="Object"><g class="cls-1"><path class="cls-2" d="M150.47,33.79c2.74-2.32,8.52-13.59,6.12-11.94s-12.38.73-12.38.73L149.14,13s-16.67,3.05-14.79.89S138.74,0,138.74,0C76.38,42.31,0,70.42,0,70.42s17.37.11,15.84,2.35-11,7.78-11,7.78C8.5,81.8,22.1,84,22.1,84L14.42,94.42S27.31,92,28.69,92.29s-3.4,8.12-3.4,8.12c50.33-12,139.11-66.6,139.11-66.6S147.73,36.11,150.47,33.79Z"/></g></g></g></svg>