<svg xmlns="http://www.w3.org/2000/svg" viewBox="0 0 403.8 121.61"><defs><style>.cls-1{fill:#bfddd5;}</style></defs><title>Recurso 1</title><g id="Capa_2" data-name="Capa 2"><g id="Object"><path class="cls-1" d="M0,0V121.61H403.8V0ZM25.81,12.16H14.56a1.87,1.87,0,1,1,0-3.73H25.81a1.87,1.87,0,1,1,0,3.73Zm23.51,0H38.08a1.87,1.87,0,1,1,0-3.73H49.32a1.87,1.87,0,1,1,0,3.73Zm25.09,0H63.17a1.87,1.87,0,1,1,0-3.73H74.41a1.87,1.87,0,1,1,0,3.73Zm23.52,0H86.68a1.87,1.87,0,1,1,0-3.73H97.93a1.87,1.87,0,1,1,0,3.73Zm25.11,0H111.79a1.87,1.87,0,1,1,0-3.73H123a1.87,1.87,0,1,1,0,3.73Zm23.51,0H135.31a1.87,1.87,0,1,1,0-3.73h11.24a1.87,1.87,0,1,1,0,3.73Zm25.09,0H160.4a1.87,1.87,0,1,1,0-3.73h11.24a1.87,1.87,0,1,1,0,3.73Zm23.52,0H183.91a1.87,1.87,0,1,1,0-3.73h11.25a1.87,1.87,0,1,1,0,3.73Zm24.23,0H208.15a1.87,1.87,0,1,1,0-3.73h11.24a1.87,1.87,0,1,1,0,3.73Zm23.52,0H231.66a1.87,1.87,0,1,1,0-3.73h11.25a1.87,1.87,0,1,1,0,3.73Zm25.09,0H256.75a1.87,1.87,0,1,1,0-3.73H268a1.87,1.87,0,1,1,0,3.73Zm23.51,0H280.27a1.87,1.87,0,1,1,0-3.73h11.24a1.87,1.87,0,1,1,0,3.73Zm25.11,0H305.38a1.87,1.87,0,1,1,0-3.73h11.24a1.87,1.87,0,1,1,0,3.73Zm23.52,0H328.89a1.87,1.87,0,1,1,0-3.73h11.25a1.87,1.87,0,1,1,0,3.73Zm25.09,0H354a1.87,1.87,0,1,1,0-3.73h11.25a1.87,1.87,0,1,1,0,3.73Zm23.51,0H377.5a1.87,1.87,0,1,1,0-3.73h11.24a1.87,1.87,0,1,1,0,3.73Z"/></g></g></svg>